<svg width="115" height="26" viewBox="0 0 115 26" fill="none" xmlns="http://www.w3.org/2000/svg">
<g clip-path="url(#clip0_1049_10135)">
<mask id="mask0_1049_10135" style="mask-type:alpha" maskUnits="userSpaceOnUse" x="0" y="0" width="120" height="26">
<path d="M0.558594 0H106.559C113.738 0 119.559 5.8203 119.559 13C119.559 20.1797 113.738 26 106.559 26H0.558594V0Z" fill="#D9D9D9"/>
</mask>
<g mask="url(#mask0_1049_10135)">
<path d="M84.3304 4.3418H80.9629V22.0468H84.3304V4.3418Z" fill="#F10A03"/>
<path d="M114.558 7.70586V4.3418H105.951H102.584V7.70586V11.5123V14.8763V18.6827V22.0449H105.951H114.558V18.6827H105.951V14.8763H113.819V11.5123H105.951V7.70586H114.558Z" fill="#F10A03"/>
<path d="M57.1269 4.3418V11.5123H50.1448V4.3418H46.7773V11.5123V14.8763V22.0449H50.1448V14.8763H57.1269V22.0449H60.4944V14.8763V11.5123V4.3418H57.1269Z" fill="#F10A03"/>
<path d="M72.2917 4.01367H69.3479C66.1648 4.01367 63.5859 6.58988 63.5859 9.76979V16.5928C63.5859 19.7727 66.1648 22.349 69.3479 22.349H72.2917C75.4748 22.349 78.0537 19.7727 78.0537 16.5928V9.76979C78.0537 6.58988 75.4748 4.01367 72.2917 4.01367ZM74.5987 16.4656C74.5987 18.066 73.3008 19.3627 71.6987 19.3627H69.9371C68.335 19.3627 67.0371 18.066 67.0371 16.4656V9.89699C67.0371 8.29659 68.335 6.99994 69.9371 6.99994H71.6987C73.3008 6.99994 74.5987 8.29659 74.5987 9.89699V16.4656Z" fill="#F10A03"/>
<path d="M98.2967 8.85815L100.336 7.3128C100.416 7.25205 100.435 7.14005 100.38 7.05461C99.952 6.41863 98.0972 4 94.6727 4C90.7294 4 87.5215 5.8472 87.5215 9.86243V17.2531C87.5215 18.9351 89.534 22.0334 92.7685 22.0334C96.003 22.0334 96.4895 22.1227 97.643 21.5474C98.7965 20.9722 100.838 19.1649 100.288 18.7909C99.0721 17.9612 98.521 17.6195 98.291 17.4847C98.2093 17.4373 98.1048 17.4563 98.0459 17.5303C97.7057 17.965 96.461 19.349 94.4085 19.349C92.0596 19.349 90.908 18.7149 90.908 14.863C90.908 11.011 90.8643 10.3484 90.8643 9.7732C90.8643 8.89801 91.5332 6.95969 94.1482 6.88186C95.8566 6.8325 96.9551 7.04702 98.0193 8.80119C98.0782 8.89802 98.2074 8.92649 98.2986 8.85625L98.2967 8.85815Z" fill="#F10A03"/>
<path d="M42.3573 8.86992L44.3964 7.32458C44.4762 7.26383 44.4952 7.15182 44.4401 7.06639C44.0125 6.4323 42.1577 4.01367 38.7332 4.01367C34.7899 4.01367 31.582 5.86087 31.582 9.8761V17.2668C31.582 18.9488 33.5945 22.0471 36.829 22.0471C40.0635 22.0471 40.55 22.1363 41.7035 21.5611C42.8571 20.9859 44.8981 19.1785 44.3489 18.8045C43.1326 17.9749 42.5815 17.6332 42.3516 17.4984C42.2699 17.4509 42.1653 17.4699 42.1064 17.544C41.7663 17.9787 40.5215 19.3627 38.4691 19.3627C36.1202 19.3627 34.9685 18.7286 34.9685 14.8766C34.9685 11.0247 34.9248 10.3621 34.9248 9.78687C34.9248 8.91169 35.5938 6.97336 38.2087 6.89553C39.9172 6.84617 41.0156 7.06069 42.0798 8.81487C42.1387 8.91169 42.268 8.94016 42.3592 8.86992H42.3573Z" fill="#F10A03"/>
<path d="M13.5586 3C8.03571 3 3.55859 7.47712 3.55859 13C3.55859 18.5229 8.03571 23 13.5586 23C19.0815 23 23.5586 18.5229 23.5586 13C23.5586 7.47712 19.0815 3 13.5586 3ZM17.6091 17.4191C16.5426 18.3966 15.12 18.995 13.5586 18.995C10.2473 18.995 7.56356 16.3112 7.56356 13C7.56356 9.68875 10.2473 7.00497 13.5586 7.00497C16.8698 7.00497 19.5536 9.68875 19.5536 13C19.5536 14.7498 18.804 16.3237 17.6091 17.4191Z" fill="#F10A03"/>
<path d="M12.0293 9.92383V16.3835L16.6494 13.1375L12.0293 9.92383Z" fill="#F10A03"/>
</g>
</g>
<defs>
<clipPath id="clip0_1049_10135">
<rect width="114" height="26" fill="white" transform="translate(0.558594)"/>
</clipPath>
</defs>
</svg>
